<svg width="16" height="16" viewBox="0 0 16 16" fill="context-fill" fill-opacity="context-fill-opacity" xmlns="http://www.w3.org/2000/svg"><path d="m7.281 1.28-5 5c-0.535 0.554-0.27 1.479 0.477 1.665 0.335 0.083 0.689-0.011 0.937-0.251l4.293-4.293 4.293 4.293c0.535 0.554 1.468 0.321 1.681-0.419 0.101-0.356-1e-3 -0.738-0.267-0.995l-5-5c-0.39-0.39-1.023-0.39-1.414 0zm0 6-5 5c-0.535 0.554-0.27 1.479 0.477 1.665 0.335 0.083 0.689-0.011 0.937-0.251l4.293-4.293 4.293 4.293c0.535 0.554 1.468 0.321 1.681-0.419 0.101-0.356-1e-3 -0.738-0.267-0.995l-5-5c-0.39-0.39-1.023-0.39-1.414 0z"></path></svg>
